<?xml version="1.0" encoding="UTF-8" standalone="no"?>
<svg
   id="svg2"
   version="1.1"
   width="1280"
   height="960"
   xmlns:xlink="http://www.w3.org/1999/xlink"
   xmlns="http://www.w3.org/2000/svg"
   xmlns:svg="http://www.w3.org/2000/svg"
   xmlns:rdf="http://www.w3.org/1999/02/22-rdf-syntax-ns#"
   xmlns:cc="http://creativecommons.org/ns#"
   xmlns:dc="http://purl.org/dc/elements/1.1/">
  <defs
     id="defs1">
    <clipPath
       clipPathUnits="userSpaceOnUse"
       id="clipPathFlag">
      <rect
         id="clipPathMask"
         width="1065"
         height="745"
         x="107"
         y="107"
         rx="67"
         ry="67" />
    </clipPath>
  </defs>
  <g
     id="layer_back"
     style="display:inline">
    <image
       id="image_back"
       x="0"
       y="0"
       width="1280"
       height="960"
       xlink:href="back.png" />
  </g>
  <g
     id="layer_mask"
     x="107"
     y="107"
     width="1065"
     height="745"
     style="display:inline"
     clip-path="url(#clipPathFlag)">
    <g
       id="flag_mask_group"
       x="106"
       y="75"
       width="1280"
       height="960"
       transform="translate(106,75) scale(1.667)">
      <svg
         id="svg378"
         height="480"
         width="640"
         version="1"
         y="0"
         x="0">
        <metadata
           id="metadata9942">
          <rdf:RDF>
            <cc:Work
               rdf:about="">
              <dc:format>image/svg+xml</dc:format>
              <dc:type
                 rdf:resource="http://purl.org/dc/dcmitype/StillImage" />
            </cc:Work>
          </rdf:RDF>
        </metadata>
        <g
           id="flag"
           stroke-width="1pt"
           fill-rule="evenodd">
          <g
             id="g10429"
             transform="matrix(.60208 0 0 .67733 0 .0000013750)">
            <rect
               id="rect171"
               height="708.66"
               width="1063"
               y="0"
               x="0"
               fill="#fff" />
            <rect
               id="rect186"
               height="708.66"
               width="531.5"
               y="0"
               x="0"
               fill="#00bf13" />
          </g>
          <g
             id="g10433"
             transform="matrix(.80385 0 0 .80385 -110.73 -44.801)"
             fill="#f21930">
            <path
               id="path184"
               d="m692.45 439.71c-50.15 90.2-160.76 122.25-248.65 73.84s-119.93-159.03-71.52-246.92c48.409-87.887 159.02-119.93 246.91-71.519 32.491 17.896 55.625 41.423 73.819 74.936-6.64-9.132-14.053-16.67-23.784-24.32-59.948-47.132-146.85-36.73-193.98 23.218-47.13 59.947-36.729 146.85 23.218 193.98 59.948 47.131 146.85 36.729 193.98-23.218z" />
            <polygon
               id="polygon185"
               transform="translate(2.1812 -2.9051)"
               points="647.32 458.71 603.55 396.67 531.37 420.21 576.84 359.41 532.15 298.04 604.03 322.5 648.59 261.03 647.53 336.95 719.76 360.33 647.24 382.78" />
          </g>
        </g>
      </svg>
    </g>
  </g>
  <g
     id="layer_fore"
     style="display:inline">
    <image
       id="image_fore"
       x="0"
       y="0"
       width="1280"
       height="960"
       xlink:href="fore.png" />
  </g>
</svg>
