<?xml version="1.0" encoding="UTF-8" standalone="no"?>
<svg
   id="svg1"
   version="1.1"
   width="1280"
   height="960"
   xmlns:xlink="http://www.w3.org/1999/xlink"
   xmlns="http://www.w3.org/2000/svg"
   xmlns:svg="http://www.w3.org/2000/svg"
   xmlns:rdf="http://www.w3.org/1999/02/22-rdf-syntax-ns#"
   xmlns:cc="http://creativecommons.org/ns#"
   xmlns:dc="http://purl.org/dc/elements/1.1/">
  <defs
     id="defs1">
    <clipPath
       clipPathUnits="userSpaceOnUse"
       id="clipPathFlag">
      <rect
         id="clipPathMask"
         width="1065"
         height="745"
         x="107"
         y="107"
         rx="67"
         ry="67" />
    </clipPath>
  </defs>
  <g
     id="layer_back"
     style="display:inline">
    <image
       id="image_back"
       x="0"
       y="0"
       width="1280"
       height="960"
       xlink:href="back.png" />
  </g>
  <g
     id="layer_mask"
     x="107"
     y="107"
     width="1065"
     height="745"
     style="display:inline"
     clip-path="url(#clipPathFlag)">
    <g
       id="flag_mask_group"
       x="106"
       y="75"
       width="1280"
       height="960"
       transform="translate(106,75) scale(1.667)">
      <svg
         version="1.1"
         width="640"
         height="480"
         id="svg2">
        <metadata
           id="metadata43">
          <rdf:RDF>
            <cc:Work
               rdf:about="">
              <dc:format>image/svg+xml</dc:format>
              <dc:type
                 rdf:resource="http://purl.org/dc/dcmitype/StillImage" />
              <dc:title />
            </cc:Work>
          </rdf:RDF>
        </metadata>
        <desc
           id="desc4">European flag</desc>
        <defs
           id="defs6">
          <g
             id="s">
            <g
               id="c">
              <path
                 id="t"
                 d="M 0,0 0,1 0.5,1 Z"
                 transform="matrix(0.95105652,0.30901699,-0.30901699,0.95105652,0,-1)" />
              <use
                 xlink:href="#t"
                 transform="scale(-1,1)"
                 id="use11"
                 x="0"
                 y="0"
                 width="100%"
                 height="100%" />
            </g>
            <g
               id="a">
              <use
                 xlink:href="#c"
                 transform="matrix(0.30901699,0.95105652,-0.95105652,0.30901699,0,0)"
                 id="use14"
                 x="0"
                 y="0"
                 width="100%"
                 height="100%" />
              <use
                 xlink:href="#c"
                 transform="matrix(-0.80901699,0.58778525,-0.58778525,-0.80901699,0,0)"
                 id="use16"
                 x="0"
                 y="0"
                 width="100%"
                 height="100%" />
            </g>
            <use
               xlink:href="#a"
               transform="scale(-1,1)"
               id="use18"
               x="0"
               y="0"
               width="100%"
               height="100%" />
          </g>
        </defs>
        <rect
           width="642.9021"
           height="483.35666"
           id="rect20"
           x="2.8321679"
           y="2.3076911"
           style="fill:#003399" />
        <g
           transform="matrix(23.811189,0,0,23.981809,322.28322,245.88665)"
           id="g22"
           style="fill:#ffcc00">
          <use
             xlink:href="#s"
             y="-6"
             id="use24"
             x="0"
             width="100%"
             height="100%" />
          <use
             xlink:href="#s"
             y="6"
             id="use26"
             x="0"
             width="100%"
             height="100%" />
          <g
             id="l">
            <use
               xlink:href="#s"
               x="-6"
               id="use29"
               y="0"
               width="100%"
               height="100%" />
            <use
               xlink:href="#s"
               transform="matrix(-0.80901699,-0.58778525,0.58778525,-0.80901699,-3,-5.1961524)"
               id="use31"
               x="0"
               y="0"
               width="100%"
               height="100%" />
            <use
               xlink:href="#s"
               transform="matrix(-0.80901699,0.58778525,-0.58778525,-0.80901699,-5.1961524,-3)"
               id="use33"
               x="0"
               y="0"
               width="100%"
               height="100%" />
            <use
               xlink:href="#s"
               transform="matrix(0.30901699,0.95105652,-0.95105652,0.30901699,-5.1961524,3)"
               id="use35"
               x="0"
               y="0"
               width="100%"
               height="100%" />
            <use
               xlink:href="#s"
               transform="matrix(0.30901699,0.95105652,-0.95105652,0.30901699,-3,5.1961524)"
               id="use37"
               x="0"
               y="0"
               width="100%"
               height="100%" />
          </g>
          <use
             xlink:href="#l"
             transform="scale(-1,1)"
             id="use39"
             x="0"
             y="0"
             width="100%"
             height="100%" />
        </g>
      </svg>
    </g>
  </g>
  <g
     id="layer_fore"
     style="display:inline">
    <image
       id="image_fore"
       x="0"
       y="0"
       width="1280"
       height="960"
       xlink:href="fore.png" />
  </g>
</svg>
