<?xml version="1.0" encoding="UTF-8" standalone="no"?>
<svg
   id="svg2"
   version="1.1"
   width="1280"
   height="960"
   xmlns:xlink="http://www.w3.org/1999/xlink"
   xmlns="http://www.w3.org/2000/svg"
   xmlns:svg="http://www.w3.org/2000/svg"
   xmlns:rdf="http://www.w3.org/1999/02/22-rdf-syntax-ns#"
   xmlns:cc="http://creativecommons.org/ns#"
   xmlns:dc="http://purl.org/dc/elements/1.1/">
  <defs
     id="defs1">
    <clipPath
       clipPathUnits="userSpaceOnUse"
       id="clipPathFlag">
      <rect
         id="clipPathMask"
         width="1065"
         height="745"
         x="107"
         y="107"
         rx="67"
         ry="67" />
    </clipPath>
  </defs>
  <g
     id="layer_back"
     style="display:inline">
    <image
       id="image_back"
       x="0"
       y="0"
       width="1280"
       height="960"
       xlink:href="back.png" />
  </g>
  <g
     id="layer_mask"
     x="107"
     y="107"
     width="1065"
     height="745"
     style="display:inline"
     clip-path="url(#clipPathFlag)">
    <g
       id="flag_mask_group"
       x="106"
       y="75"
       width="1280"
       height="960"
       transform="translate(106,75) scale(1.667)">
      <svg
         id="svg1"
         height="480"
         width="640"
         version="1.1">
        <metadata
           id="metadata2995">
          <rdf:RDF>
            <cc:Work
               rdf:about="">
              <dc:format>image/svg+xml</dc:format>
              <dc:type
                 rdf:resource="http://purl.org/dc/dcmitype/StillImage" />
            </cc:Work>
          </rdf:RDF>
        </metadata>
        <defs
           id="defs3">
          <clipPath
             id="clipPath8673"
             clipPathUnits="userSpaceOnUse">
            <rect
               id="rect8675"
               fill-opacity="0.67"
               height="512"
               width="682.67"
               y="-.0000028613"
               x="-85.333" />
          </clipPath>
        </defs>
        <g
           id="flag"
           clip-path="url(#clipPath8673)"
           transform="matrix(.93750 0 0 .93750 80 .0000026825)">
          <g
             id="g578"
             stroke-width="1pt"
             transform="matrix(17.067 0 0 17.067 -256 -0.0000024)">
            <rect
               id="rect124"
               height="30"
               width="60"
               y="0"
               x="0"
               fill="#006" />
            <g
               id="g584">
              <path
                 id="path146"
                 d="m0 0v3.3541l53.292 26.646h6.708v-3.354l-53.292-26.646h-6.708zm60 0v3.354l-53.292 26.646h-6.708v-3.354l53.292-26.646h6.708z"
                 fill="#fff" />
              <path
                 id="path136"
                 d="m25 0v30h10v-30h-10zm-25 10v10h60v-10h-60z"
                 fill="#fff" />
              <path
                 id="path141"
                 d="m0 12v6h60v-6h-60zm27-12v30h6v-30h-6z"
                 fill="#c00" />
              <path
                 id="path150"
                 d="m0 30 20-10h4.472l-20 10h-4.472zm0-30 20 10h-4.472l-15.528-7.7639v-2.2361zm35.528 10 20-10h4.472l-20 10h-4.472zm24.472 20-20-10h4.472l15.528 7.764v2.236z"
                 fill="#c00" />
            </g>
          </g>
        </g>
      </svg>
    </g>
  </g>
  <g
     id="layer_fore"
     style="display:inline">
    <image
       id="image_fore"
       x="0"
       y="0"
       width="1280"
       height="960"
       xlink:href="fore.png" />
  </g>
</svg>
