<?xml version="1.0" encoding="UTF-8" standalone="no"?>
<svg
   id="svg2"
   version="1.1"
   width="1280"
   height="960"
   xmlns:xlink="http://www.w3.org/1999/xlink"
   xmlns="http://www.w3.org/2000/svg"
   xmlns:svg="http://www.w3.org/2000/svg"
   xmlns:rdf="http://www.w3.org/1999/02/22-rdf-syntax-ns#"
   xmlns:cc="http://creativecommons.org/ns#"
   xmlns:dc="http://purl.org/dc/elements/1.1/">
  <defs
     id="defs1">
    <clipPath
       clipPathUnits="userSpaceOnUse"
       id="clipPathFlag">
      <rect
         id="clipPathMask"
         width="1065"
         height="745"
         x="107"
         y="107"
         rx="67"
         ry="67" />
    </clipPath>
  </defs>
  <g
     id="layer_back"
     style="display:inline">
    <image
       id="image_back"
       x="0"
       y="0"
       width="1280"
       height="960"
       xlink:href="back.png" />
  </g>
  <g
     id="layer_mask"
     x="107"
     y="107"
     width="1065"
     height="745"
     style="display:inline"
     clip-path="url(#clipPathFlag)">
    <g
       id="flag_mask_group"
       x="106"
       y="75"
       width="1280"
       height="960"
       transform="translate(106,75) scale(1.667)">
      <svg
         id="svg548"
         height="480"
         width="640"
         version="1.1">
        <metadata
           id="metadata3584">
          <rdf:RDF>
            <cc:Work
               rdf:about="">
              <dc:format>image/svg+xml</dc:format>
              <dc:type
                 rdf:resource="http://purl.org/dc/dcmitype/StillImage" />
            </cc:Work>
          </rdf:RDF>
        </metadata>
        <g
           id="flag">
          <g
             id="g3197"
             fill-rule="evenodd"
             transform="matrix(1.3333 0 0 1 -106.67 .0000061225)">
            <rect
               id="rect672"
               height="480"
               width="478.18"
               y=".000024395"
               x="81.824"
               stroke-width="1pt"
               fill="#399408" />
            <path
               id="path555"
               d="m80.13 0.0000012049c-0.629 0.073355 464.71 241.48 464.71 241.48l-464.84 238.29 0.13-479.77z"
               fill="#fff" />
            <path
               id="path671"
               d="m80.215 20.186c2.5958 0 419.3 217.89 416.93 220.03l-415.74 223.05-1.185-443.08z"
               fill="#ffde08" />
            <path
               id="path556"
               d="m81.402 0.78343c1.3857 0 218.21 240.92 218.21 240.92l-218.21 235.28v-476.2z" />
            <path
               id="path670"
               d="m80.215 33.902c1.243-14.986 195.68 208.4 195.68 208.4l-195.69 209.4 0.000002-417.79z"
               fill="#de2110" />
          </g>
        </g>
      </svg>
    </g>
  </g>
  <g
     id="layer_fore"
     style="display:inline">
    <image
       id="image_fore"
       x="0"
       y="0"
       width="1280"
       height="960"
       xlink:href="fore.png" />
  </g>
</svg>
