<?xml version="1.0" encoding="UTF-8" standalone="no"?>
<svg
   id="svg2"
   version="1.1"
   width="1280"
   height="960"
   xmlns:xlink="http://www.w3.org/1999/xlink"
   xmlns="http://www.w3.org/2000/svg"
   xmlns:svg="http://www.w3.org/2000/svg"
   xmlns:rdf="http://www.w3.org/1999/02/22-rdf-syntax-ns#"
   xmlns:cc="http://creativecommons.org/ns#"
   xmlns:dc="http://purl.org/dc/elements/1.1/">
  <defs
     id="defs1">
    <clipPath
       clipPathUnits="userSpaceOnUse"
       id="clipPathFlag">
      <rect
         id="clipPathMask"
         width="1065"
         height="745"
         x="107"
         y="107"
         rx="67"
         ry="67" />
    </clipPath>
  </defs>
  <g
     id="layer_back"
     style="display:inline">
    <image
       id="image_back"
       x="0"
       y="0"
       width="1280"
       height="960"
       xlink:href="back.png" />
  </g>
  <g
     id="layer_mask"
     x="107"
     y="107"
     width="1065"
     height="745"
     style="display:inline"
     clip-path="url(#clipPathFlag)">
    <g
       id="flag_mask_group"
       x="106"
       y="75"
       width="1280"
       height="960"
       transform="translate(106,75) scale(1.667)">
      <svg
         id="svg378"
         viewBox="0 0 512 512"
         height="480"
         width="640"
         version="1"
         y="0"
         x="0">
        <metadata
           id="metadata3649">
          <rdf:RDF>
            <cc:Work
               rdf:about="">
              <dc:format>image/svg+xml</dc:format>
              <dc:type
                 rdf:resource="http://purl.org/dc/dcmitype/StillImage" />
            </cc:Work>
          </rdf:RDF>
        </metadata>
        <defs
           id="defs380">
          <clipPath
             id="clipPath4393"
             clipPathUnits="userSpaceOnUse">
            <rect
               id="rect4395"
               fill-opacity="0.67"
               height="512"
               width="682.67"
               y="0"
               x="-85.333" />
          </clipPath>
        </defs>
        <g
           id="flag"
           clip-path="url(#clipPath4393)"
           fill-rule="evenodd"
           stroke-width="1pt">
          <rect
             id="rect649"
             height="216.28"
             width="993.54"
             y="139.08"
             x="-226.62"
             fill="#fff" />
          <rect
             id="rect148"
             transform="scale(-1)"
             height="172.87"
             width="989.67"
             y="-512"
             x="-765.11"
             fill="#087bce" />
          <rect
             id="rect585"
             transform="scale(-1)"
             height="168.1"
             width="994.15"
             y="-168.1"
             x="-767.53"
             fill="#087bce" />
          <polygon
             id="polygon671"
             transform="matrix(.34510 -.0016795 -.0037575 .32718 88.666 141.87)"
             points="498.45 365.81 441.12 324.21 511.95 324.28 533.78 256.9 555.61 324.28 626.44 324.23 569.1 365.81 591.04 433.16 591.04 433.16 533.77 391.48 476.5 433.15"
             fill="#087bce" />
          <polygon
             id="polygon637"
             transform="matrix(.34510 -.0016795 -.0037575 .32718 231.61 178.67)"
             points="498.45 365.81 441.12 324.21 511.95 324.28 533.78 256.9 555.61 324.28 626.44 324.23 569.1 365.81 591.04 433.16 591.04 433.16 533.77 391.48 476.5 433.15"
             fill="#087bce" />
          <polygon
             id="polygon638"
             transform="matrix(.34510 -.0016795 -.0037575 .32718 231.61 102.24)"
             points="498.45 365.81 441.12 324.21 511.95 324.28 533.78 256.9 555.61 324.28 626.44 324.23 569.1 365.81 591.04 433.16 591.04 433.16 533.77 391.48 476.5 433.15"
             fill="#087bce" />
          <polygon
             id="polygon639"
             transform="matrix(.34510 -.0016795 -.0037575 .32718 -84.003 178.67)"
             points="498.45 365.81 441.12 324.21 511.95 324.28 533.78 256.9 555.61 324.28 626.44 324.23 569.1 365.81 591.04 433.16 591.04 433.16 533.77 391.48 476.5 433.15"
             fill="#087bce" />
          <polygon
             id="polygon640"
             transform="matrix(.34510 -.0016795 -.0037575 .32718 -84.003 102.24)"
             points="498.45 365.81 441.12 324.21 511.95 324.28 533.78 256.9 555.61 324.28 626.44 324.23 569.1 365.81 591.04 433.16 591.04 433.16 533.77 391.48 476.5 433.15"
             fill="#087bce" />
        </g>
      </svg>
    </g>
  </g>
  <g
     id="layer_fore"
     style="display:inline">
    <image
       id="image_fore"
       x="0"
       y="0"
       width="1280"
       height="960"
       xlink:href="fore.png" />
  </g>
</svg>
