<?xml version="1.0" encoding="UTF-8" standalone="no"?>
<svg
   id="svg2"
   version="1.1"
   width="1280"
   height="960"
   xmlns:xlink="http://www.w3.org/1999/xlink"
   xmlns="http://www.w3.org/2000/svg"
   xmlns:svg="http://www.w3.org/2000/svg"
   xmlns:rdf="http://www.w3.org/1999/02/22-rdf-syntax-ns#"
   xmlns:cc="http://creativecommons.org/ns#"
   xmlns:dc="http://purl.org/dc/elements/1.1/">
  <defs
     id="defs1">
    <clipPath
       clipPathUnits="userSpaceOnUse"
       id="clipPathFlag">
      <rect
         id="clipPathMask"
         width="1065"
         height="745"
         x="107"
         y="107"
         rx="67"
         ry="67" />
    </clipPath>
  </defs>
  <g
     id="layer_back"
     style="display:inline">
    <image
       id="image_back"
       x="0"
       y="0"
       width="1280"
       height="960"
       xlink:href="back.png" />
  </g>
  <g
     id="layer_mask"
     x="107"
     y="107"
     width="1065"
     height="745"
     style="display:inline"
     clip-path="url(#clipPathFlag)">
    <g
       id="flag_mask_group"
       x="106"
       y="75"
       width="1280"
       height="960"
       transform="translate(106,75) scale(1.667)">
      <svg
         id="svg378"
         height="480"
         width="640"
         version="1"
         y="0"
         x="0">
        <metadata
           id="metadata3652">
          <rdf:RDF>
            <cc:Work
               rdf:about="">
              <dc:format>image/svg+xml</dc:format>
              <dc:type
                 rdf:resource="http://purl.org/dc/dcmitype/StillImage" />
            </cc:Work>
          </rdf:RDF>
        </metadata>
        <defs
           id="defs380">
          <clipPath
             id="clipPath7229"
             clipPathUnits="userSpaceOnUse">
            <rect
               id="rect7231"
               fill-opacity="0.67"
               height="480"
               width="640"
               y="0"
               x="0" />
          </clipPath>
        </defs>
        <g
           id="flag"
           fill-rule="evenodd"
           clip-path="url(#clipPath7229)">
          <rect
             id="rect149"
             transform="scale(-1)"
             height="480"
             width="685.71"
             y="-480"
             x="-662.86"
             fill="#2d9c4b" />
          <path
             id="path673"
             d="m67.255 175.27c69.077 191.41 277.65 198.43 353.18 0-0.53734 265.16-348.61 277.45-353.18 0z"
             fill="#ffe900" />
          <polygon
             id="polygon638"
             transform="matrix(.57539 -.021671 .010838 .56753 -68.784 7.4629)"
             points="533.78 256.9 555.61 324.28 626.44 324.23 569.1 365.81 591.04 433.16 591.04 433.16 533.77 391.48 476.5 433.15 498.45 365.81 441.12 324.21 511.95 324.28"
             fill="#ffe900" />
        </g>
      </svg>
    </g>
  </g>
  <g
     id="layer_fore"
     style="display:inline">
    <image
       id="image_fore"
       x="0"
       y="0"
       width="1280"
       height="960"
       xlink:href="fore.png" />
  </g>
</svg>
