<?xml version="1.0" encoding="UTF-8" standalone="no"?>
<svg
   id="svg2"
   version="1.1"
   width="1280"
   height="960"
   xmlns:xlink="http://www.w3.org/1999/xlink"
   xmlns="http://www.w3.org/2000/svg"
   xmlns:svg="http://www.w3.org/2000/svg"
   xmlns:rdf="http://www.w3.org/1999/02/22-rdf-syntax-ns#"
   xmlns:cc="http://creativecommons.org/ns#"
   xmlns:dc="http://purl.org/dc/elements/1.1/">
  <defs
     id="defs1">
    <clipPath
       clipPathUnits="userSpaceOnUse"
       id="clipPathFlag">
      <rect
         id="clipPathMask"
         width="1065"
         height="745"
         x="107"
         y="107"
         rx="67"
         ry="67" />
    </clipPath>
  </defs>
  <g
     id="layer_back"
     style="display:inline">
    <image
       id="image_back"
       x="0"
       y="0"
       width="1280"
       height="960"
       xlink:href="back.png" />
  </g>
  <g
     id="layer_mask"
     x="107"
     y="107"
     width="1065"
     height="745"
     style="display:inline"
     clip-path="url(#clipPathFlag)">
    <g
       id="flag_mask_group"
       x="106"
       y="75"
       width="1280"
       height="960"
       transform="translate(106,75) scale(1.667)">
      <svg
         id="svg3337"
         height="480"
         width="640"
         version="1.1">
        <metadata
           id="metadata3298">
          <rdf:RDF>
            <cc:Work
               rdf:about="">
              <dc:format>image/svg+xml</dc:format>
              <dc:type
                 rdf:resource="http://purl.org/dc/dcmitype/StillImage" />
            </cc:Work>
          </rdf:RDF>
        </metadata>
        <g
           id="flag">
          <g
             id="g8564"
             fill-rule="evenodd"
             stroke-width="1pt"
             transform="matrix(1.3333 0 0 1 -106.67 0)">
            <rect
               id="rect1200"
               height="480"
               width="160"
               y="-2.3484e-9"
               x="80"
               fill="#0b7226" />
            <rect
               id="rect880"
               height="480"
               width="160"
               y="-2.3484e-9"
               x="240"
               fill="#ff0" />
            <rect
               id="rect1201"
               height="480"
               width="160"
               y="-2.3484e-9"
               x="400"
               fill="#bc0000" />
          </g>
          <polygon
             id="polygon907"
             transform="matrix(1.217 0 0 1.2614 108.31 39.077)"
             points="192.06 142.52 251 142.52 204.47 177.05 221.53 232 175 197.46 128.47 230.43 145.53 177.05 99 142.52 156.39 142.52 175 86"
             fill="#0b7226" />
        </g>
      </svg>
    </g>
  </g>
  <g
     id="layer_fore"
     style="display:inline">
    <image
       id="image_fore"
       x="0"
       y="0"
       width="1280"
       height="960"
       xlink:href="fore.png" />
  </g>
</svg>
