<?xml version="1.0" encoding="UTF-8" standalone="no"?>
<svg
   id="svg2"
   version="1.1"
   width="1280"
   height="960"
   xmlns:xlink="http://www.w3.org/1999/xlink"
   xmlns="http://www.w3.org/2000/svg"
   xmlns:svg="http://www.w3.org/2000/svg"
   xmlns:rdf="http://www.w3.org/1999/02/22-rdf-syntax-ns#"
   xmlns:cc="http://creativecommons.org/ns#"
   xmlns:dc="http://purl.org/dc/elements/1.1/">
  <defs
     id="defs1">
    <clipPath
       clipPathUnits="userSpaceOnUse"
       id="clipPathFlag">
      <rect
         id="clipPathMask"
         width="1065"
         height="745"
         x="107"
         y="107"
         rx="67"
         ry="67" />
    </clipPath>
  </defs>
  <g
     id="layer_back"
     style="display:inline">
    <image
       id="image_back"
       x="0"
       y="0"
       width="1280"
       height="960"
       xlink:href="back.png" />
  </g>
  <g
     id="layer_mask"
     x="107"
     y="107"
     width="1065"
     height="745"
     style="display:inline"
     clip-path="url(#clipPathFlag)">
    <g
       id="flag_mask_group"
       x="106"
       y="75"
       width="1280"
       height="960"
       transform="translate(106,75) scale(1.667)">
      <svg
         id="svg378"
         height="480"
         width="640"
         version="1"
         y="0"
         x="0">
        <metadata
           id="metadata3619">
          <rdf:RDF>
            <cc:Work
               rdf:about="">
              <dc:format>image/svg+xml</dc:format>
              <dc:type
                 rdf:resource="http://purl.org/dc/dcmitype/StillImage" />
            </cc:Work>
          </rdf:RDF>
        </metadata>
        <g
           id="flag"
           fill-rule="evenodd">
          <rect
             id="rect171"
             rx="0"
             ry="0"
             height="480"
             width="640"
             y=".0000010549"
             x="-2.1606e-8"
             fill="#fff" />
          <rect
             id="rect256"
             rx="0"
             ry="0"
             height="159.3"
             width="480"
             y="320.7"
             x="-3.457e-7"
             fill="#fff" />
          <rect
             id="rect255"
             height="159.3"
             width="480"
             y=".000033733"
             x="-3.457e-7"
             fill="#fff" />
          <path
             id="path205"
             d="m201.9 281-28.822-20.867-28.68 21.072 10.667-34.242-28.628-21.145 35.418-0.2948 10.985-34.138 11.221 34.06 35.418 0.0449-28.481 21.344 10.902 34.166z"
             fill="#fff" />
          <path
             id="path583"
             d="m509.54 281-28.822-20.867-28.68 21.072 10.667-34.242-28.628-21.145 35.418-0.2948 10.985-34.138 11.221 34.06 35.418 0.0449-28.481 21.344 10.902 34.166z"
             fill="#fff" />
          <rect
             id="rect7524"
             rx="0"
             ry="0"
             height="159.3"
             width="640"
             y="320.7"
             x="-3.457e-7"
             stroke-width="1pt" />
          <rect
             id="rect7526"
             height="159.3"
             width="640"
             y=".000033733"
             x="-3.457e-7"
             stroke-width="1pt"
             fill="#f00" />
          <path
             id="path7528"
             d="m201.9 281-28.822-20.867-28.68 21.072 10.667-34.242-28.628-21.145 35.418-0.2948 10.985-34.138 11.221 34.06 35.418 0.0449-28.481 21.344 10.902 34.166z"
             stroke-width=".11287"
             fill="#090" />
          <path
             id="path7530"
             d="m509.54 281-28.822-20.867-28.68 21.072 10.667-34.242-28.628-21.145 35.418-0.2948 10.985-34.138 11.221 34.06 35.418 0.0449-28.481 21.344 10.902 34.166z"
             stroke-width=".11287"
             fill="#090" />
        </g>
      </svg>
    </g>
  </g>
  <g
     id="layer_fore"
     style="display:inline">
    <image
       id="image_fore"
       x="0"
       y="0"
       width="1280"
       height="960"
       xlink:href="fore.png" />
  </g>
</svg>
